<?xml version="1.0" encoding="UTF-8"?>
<svg id="Camada_2" data-name="Camada 2" xmlns="http://www.w3.org/2000/svg" viewBox="0 0 222 227">
  <defs>
    <style>
      .cls-1 {
        fill: #fbd572;
      }

      .cls-2 {
        fill: #f18563;
      }

      .cls-3 {
        fill: #cca07e;
      }

      .cls-4 {
        fill: #4177bb;
      }

      .cls-5 {
        fill: none;
        stroke: #717171;
        stroke-width: 6px;
      }
    </style>
  </defs>
  <g id="Camada_1-2" data-name="Camada 1">
    <ellipse class="cls-1" cx="105" cy="108.5" rx="73" ry="70.5"/>
    <path class="cls-5" d="m129.67,138.45c-24.13,27.05-48.54,49.13-68.45,62.97-9.97,6.93-18.68,11.7-25.55,14.04-7.14,2.43-11.18,1.87-13.11.16-1.92-1.72-2.93-5.67-1.34-13.04,1.54-7.1,5.28-16.29,11.04-26.99,11.48-21.35,30.64-48.12,54.77-75.17,24.13-27.06,48.54-49.13,68.45-62.97,9.97-6.93,18.67-11.7,25.55-14.04,7.14-2.43,11.18-1.87,13.11-.16,1.92,1.72,2.93,5.67,1.34,13.04-1.54,7.1-5.28,16.29-11.04,26.99-11.48,21.35-30.64,48.12-54.77,75.17Z"/>
    <circle class="cls-4" cx="18" cy="209" r="18"/>
    <ellipse class="cls-2" cx="81.5" cy="186" rx="12.5" ry="12"/>
    <circle class="cls-3" cx="195.5" cy="26.5" r="26.5"/>
    <path class="cls-1" d="m105,38c-40.32,0-73,31.56-73,70.5,0,24.14,12.57,45.45,31.74,58.15l91.19-109.56c-13.06-11.83-30.61-19.09-49.92-19.09Z"/>
  </g>
</svg>